<svg version="1.1" id="Layer_1" xmlns="http://www.w3.org/2000/svg" xmlns:xlink="http://www.w3.org/1999/xlink" x="0px" y="0px" viewBox="0 0 89.1 73.3" style="enable-background:new 0 0 89.1 73.3;" xml:space="preserve">
 <style type="text/css">
  .st0{fill:#D72027;}
	.st1{fill:#FFFFFF;}
 </style>
 <g>
  <rect class="st0" width="89.1" height="73.3">
  </rect>
  <path class="st1" d="M36.4,34.8L34.2,37c1.5,1.5,2,2.2,2.1,2.9c0.1-0.1,2.1-1.8,2.1-2.4C38.4,36.6,37.8,36.3,36.4,34.8 M14.2,48.3
		H6.7c0,0,1.3,1.1,1.3,3.4v9C8,63,8.9,63,8.9,63h7.3c1.7,0,2.2-1.2,2.2-1.8v-0.9c0,0-0.5,1.1-2.7,1.1h-3.5c-1.1,0-1-0.9-1.1-1.7v-5
		h2.5c0.8,0,1.6,0.1,2.4,0.5c0,0-0.8-2-3.3-2h-1.6v-1.6c0,0,0-1.4-0.3-1.8h2.3c2,0,3.5,0,5.1,1C18.3,51,18,48.3,14.2,48.3
		 M25.8,51.2c-2.4,0-3,2.3-3,2.3s-0.1-2.2-2-2.2h-1.9c0,0,1.1,0.4,1.1,2.3v7c0,2.3,0.9,2.4,0.9,2.4H24c-0.1,0-1.2-0.9-1.2-2.4v-6.2
		c0-0.3,0.5-1.2,1.8-1.2c0.8,0,1.6,0.8,1.6,1.7v5.8c0,2.4,0.9,2.4,0.9,2.4h3.1c0,0-1.2-0.8-1.2-2.4v-6.2c0.1-0.3,0.5-1.2,1.7-1.2
		c0.9,0,1.7,0.8,1.7,1.7v5.8c0,2.3,0.9,2.3,0.9,2.3h3.1c0,0-1.2-0.8-1.2-2.4v-6.3c0-2.5-2-3.1-3.5-3.1c-2,0-2.6,1.7-2.8,2.2
		C28.6,51.9,27.1,51.2,25.8,51.2 M38.8,51.3h-1.9c0,0,1.1,0.5,1.1,2.3v7c0,2.3,0.9,2.3,0.9,2.3H42c0,0-1.2-0.8-1.2-2.4v-6.7
		C40.8,51.3,39.4,51.3,38.8,51.3 M44.3,51.3h-1.9c0,0,1.1,0.4,1.1,2.3v7c0,2.3,0.9,2.4,0.9,2.4h3.1c-0.1,0-1.2-0.9-1.2-2.4v-5.8
		c0.1-0.5,0.4-0.9,0.8-1.2c0.4-0.3,0.9-0.4,1.4-0.4c0.7,0,1.4,0.3,1.9,0.9v-2c0,0-0.3-0.8-1.6-0.8c-1.9,0-2.4,2.3-2.4,2.3
		C46.2,51.8,45.7,51.3,44.3,51.3 M64,48.6c0,0-0.7,1.2-2.1,2.3c-0.9,0.7-2.7,1.6-2.7,1.6h2v8.2c0,2.3,0.9,2.3,0.9,2.3h3.1
		c0,0-1.2-0.8-1.2-2.3v-8.1h0.8c1,0,1.8,0.5,1.8,0.5v-1.8H64L64,48.6 M71.7,51.3c-3.2,0-4.9,3-4.9,6.2s2.1,5.6,5.1,5.6
		c2.5,0,3.3-0.9,3.3-0.9v-1.9c-0.7,1.2-1.6,1.5-2.4,1.5c-0.5,0-0.9-0.1-1.3-0.3c-1.4-0.6-1.6-2.4-1.6-2.4c1.1-1.3,2.5-1,4.2-2.9
		C76.5,53.8,74.8,51.3,71.7,51.3 M69.8,57.8c0,0-0.4-5.4,1.6-5.6h0.1c1.6,0,1.2,2.3,0.7,3.2C71.5,56.9,70.5,57,69.8,57.8 M39.4,47.5
		c-0.8,0-1.4,0.6-1.4,1.4c0,0.8,0.6,1.4,1.4,1.4c0.8,0,1.4-0.6,1.4-1.4C40.8,48.1,40.2,47.5,39.4,47.5 M54.6,51.3
		c-1.8,0-2.9,0.9-2.9,0.9v2c0,0,0.6-1.6,2.3-1.6c1.6,0,1.7,0.8,1.7,1.2c0,0,0.2,0.5-0.2,1.2c-0.7,1.3-6.3,1.5-5.5,5.9
		c0.3,1.7,1.5,2.2,2.9,2.2s2.2-0.7,2.6-1.4c0.2,1.3,0.9,1.4,0.9,1.4h3.1c0,0-1.2-0.8-1.2-2.3v-6.6C58.2,52.5,56.5,51.3,54.6,51.3
		 M53.6,61.7c-0.7,0-1.2-0.7-1.2-1.5c0-2.9,2.4-3.3,3-4.1V61C55.1,61.3,54.8,61.7,53.6,61.7 M80,51.2c-1.9,0-3.5,1.2-3.5,2.8
		c0,1.4,0.6,2.3,1.7,3.1l1.6,1c0.9,0.5,1.2,1.1,1.2,1.7c0,0.8-0.7,1.9-2.3,1.9c-1.6,0-2.3-1.7-2.3-1.7v2.1c0,0,1.2,0.8,2.9,0.8
		c2.1,0,4.3-1.6,4.2-3.8c0-0.8-0.3-1.5-0.7-2c-0.7-1-2-1.6-3-2.3c-0.6-0.4-0.9-1-0.9-1.2c0-0.4,0.2-1.2,1.8-1.2
		c1.5,0,2.2,1.6,2.2,1.6v-2C82.9,52.2,81.8,51.2,80,51.2 M31.4,30.9h-1.2c0,0,1.2,0.7,1.2,2.3v5.4c0,3.5,2.9,6.8,6.4,6.8h2.9
		c1.8,0,2.4-0.4,3.4-1.4l1.1-1.1c0.6-0.7,1.3-1.2,1.3-3.1V38c0-1.5-0.9-2.2-1.3-2.6l-1-1V38c0,0,0.7,0.8,1.1,1
		c1.5,1.2,0.3,3.3-1.1,3.3h-6.4h-0.1c-3-0.1-5.4-2.6-5.5-5.6v-2.9C32.2,30.9,31.4,30.9,31.4,30.9 M40.8,34.8L38.6,37
		c1.5,1.5,2,2.2,2.1,2.9c0.1-0.1,2.1-1.8,2.1-2.4C42.8,36.6,42.2,36.2,40.8,34.8 M45.3,10.1l-1.5,1.5c-0.6,0.6-0.4,1.8,0.8,3v3
		c0,0.3-0.3,0.6-0.3,0.6s-1.8-1.6-3.4-1.6h-2.4c-1.5,0-2.7,1.4-2.9,1.5c-0.8,0.8-0.8,2.3-0.2,3l1.7,1.7c0,0-0.4-2.7,0-4.5
		c0.1-0.4,0.6-0.9,1.1-0.9l3.9,3l-4.5,4.7c-0.2,0.2-0.8,0.6-1.4,0.6c-0.7,0-1-0.4-1.3-0.8v2.2c0,0.7,1,1.5,1.9,1.5h6
		c0.4,0,0.9-0.1,1.3-0.5l2-2c0.3-0.3,0.4-0.7,0.4-1.2v-2.3c0-2.2-1.7-3.9-1.7-3.9s0.4-0.3,0.4-1.2v-2.3c0,0,0.7,0.7,0.8,1l1.3-1.3
		c0.6-0.6-0.4-1.7-0.8-2.2C45.3,11.4,45.3,10.1,45.3,10.1 M37.8,25.9c0.6-0.3,0.7-0.5,1.2-1.1l3.8-4c0,0,2.1,2.2,2.8,3.4
		c0.3,0.6,0.7,1.7-1.1,1.7H37.8 M32.7,21.3h-1.1c0.7,0.4,1.2,1.6,1.2,2.3V28c0,1.2,0.9,5.5,4.8,5.5h11.3v7.2c0,1.2-0.4,1.9-0.7,2.2
		l-1.7,1.6h0.8l3.1-2.8c0.6-0.7,1.3-1.4,1.3-3.6v-4.6l1.3-1.3l2.2-2.1c0,1.8,0.9,2.6,1.7,2.6c0.4,0,0.9-0.2,1.2-0.5l2-1.9
		c0.9-0.9,1.4-3.7-0.8-3.7c-1.4,0-3,2-3.1,2.2c-0.5-0.3-0.9-1-0.9-1v1.7c-0.2,0.3-1.1,1-1.8,1h-1.8v-1.7c0-0.8,0.3-1.7,0.7-2.1
		l1.7-1.6h-0.8l-3.4,3.1c-0.6,0.7-1,2-1,2.3H36.1c-1.6,0-2.6-1.6-2.6-2.9v-3.3C33.5,21.6,32.8,21.3,32.7,21.3 M58.6,30.9
		c-0.3,0-0.6-0.1-1-0.4s-1.1-1.3-1.1-1.3c0.2-0.2,0.8-0.4,1.3-0.4c0.4,0,0.8,0.1,0.9,0.3C59.4,30,59.3,30.9,58.6,30.9 M53.3,10.1
		l-3.4,3.1c-0.2,0.2-1,1.4-1,2.8v8.9c0,0.6-0.4,1.5-0.7,1.8l-1.7,1.6h0.8l3.2-2.9c0.4-0.4,1.2-1.4,1.2-3.1v-8.5c0-1.3,0.6-2,0.9-2.3
		l1.5-1.4H53.3 M53.8,32.9v3.5l1.2,1.3c1,1,0.9,2.9-2.1,5.8c-1.1,1.1-2.5,1.8-4.1,1.9h-5.4l3.2,2.8h2.2c2.2,0,4.2-0.9,5.5-2.3
		c1.2-1.3,1.9-3,1.8-4.8v-4.6c0-1.6-1-2.5-1.2-2.7C54.7,33.8,53.8,32.9,53.8,32.9">
  </path>
 </g>
</svg>