<svg version="1.1" id="Layer_1" xmlns="http://www.w3.org/2000/svg" xmlns:xlink="http://www.w3.org/1999/xlink" x="0px" y="0px" viewBox="-452 529 33.8 24" style="enable-background:new -452 529 33.8 24;" xml:space="preserve">
 <style type="text/css">
  .st0{fill:url(#SVGID_1_);}
	.st1{fill:#FFFFFF;}
	.st2{fill:url(#SVGID_2_);}
	.st3{fill:url(#SVGID_3_);}
	.st4{fill:url(#SVGID_4_);}
 </style>
 <title>
  24px
 </title>
 <g id="Qantas_Type">
  <linearGradient id="SVGID_1_" gradientUnits="userSpaceOnUse" x1="-430.6077" y1="531.0916" x2="-447.0177" y2="555.0716" gradientTransform="matrix(1 0 0 -1 0 1084)">
   <stop offset="0" style="stop-color:#BE0000">
   </stop>
   <stop offset="0.39" style="stop-color:#DE0000">
   </stop>
   <stop offset="0.77" style="stop-color:#F60000">
   </stop>
   <stop offset="1" style="stop-color:#FF0000">
   </stop>
  </linearGradient>
  <path class="st0" d="M-442.9,553h24.6l-19.8-19.8c-2.6-2.6-6.2-4.1-9.9-4.2h-4.1l0.3,0.8l1.4,3.6L-442.9,553z">
  </path>
  <path class="st1" d="M-450.3,533.4c2.7,4.6,9.8,5.1,10.5,12.2c0,0.3,0.3,0.5,0.6,0.6c4.2,0.7,8.2,2.4,11.5,5.1l0,0c0,0,0,0,0.1,0
		c0,0,0.1,0,0.1,0c0-0.1,0-0.1,0-0.2c-2.4-2.5-5.3-4.5-8.6-5.8l-1-0.4c-0.5-0.2-0.9-0.7-0.8-1.3c0.1-2.1,5.1-1.7,5.6-2.7l0.1-0.2
		c-1.1-0.9-2.3-1.6-3.6-1.9c0,0.3,0.1,0.5,0.2,0.8c0.3,0.5-0.3,1.3-1.2,0.4l0-0.1c-6.9-6.3-12-3-14.7-10L-450.3,533.4z">
  </path>
  <linearGradient id="SVGID_2_" gradientUnits="userSpaceOnUse" x1="-435.1439" y1="541.9099" x2="-434.9238" y2="544.4417" gradientTransform="matrix(1 0 0 -1 0 1084)">
   <stop offset="0.65" style="stop-color:#FFFFFF;stop-opacity:0">
   </stop>
   <stop offset="0.69" style="stop-color:#EDEDED;stop-opacity:0.23">
   </stop>
   <stop offset="0.76" style="stop-color:#D7D7D7;stop-opacity:0.5">
   </stop>
   <stop offset="0.81" style="stop-color:#C6C6C6;stop-opacity:0.72">
   </stop>
   <stop offset="0.87" style="stop-color:#B9B9B9;stop-opacity:0.87">
   </stop>
   <stop offset="0.91" style="stop-color:#B2B2B2;stop-opacity:0.97">
   </stop>
   <stop offset="0.95" style="stop-color:#AFAFAF">
   </stop>
  </linearGradient>
  <path class="st2" d="M-433.9,540.5c-0.7,0-1.4-0.4-1.8-1.1c0.1,0.3,0.1,0.6-0.2,0.7c-0.1,0.1-0.2,0.1-0.3,0.1v1.7
		c0.7-0.2,1.6-0.3,2.3-0.5V540.5z">
  </path>
  <linearGradient id="SVGID_3_" gradientUnits="userSpaceOnUse" x1="-438.39" y1="535.2382" x2="-427.75" y2="535.2382" gradientTransform="matrix(1 0 0 -1 0 1084)">
   <stop offset="0" style="stop-color:#FFFFFF;stop-opacity:0">
   </stop>
   <stop offset="7.000000e-02" style="stop-color:#F3F3F3;stop-opacity:0.15">
   </stop>
   <stop offset="0.21" style="stop-color:#DEDEDE;stop-opacity:0.41">
   </stop>
   <stop offset="0.35" style="stop-color:#CDCDCD;stop-opacity:0.62">
   </stop>
   <stop offset="0.49" style="stop-color:#C0C0C0;stop-opacity:0.79">
   </stop>
   <stop offset="0.63" style="stop-color:#B7B7B7;stop-opacity:0.91">
   </stop>
   <stop offset="0.77" style="stop-color:#B1B1B1;stop-opacity:0.98">
   </stop>
   <stop offset="0.9" style="stop-color:#AFAFAF">
   </stop>
  </linearGradient>
  <path class="st3" d="M-438.4,546.4c3.9,0.8,7.5,2.4,10.6,4.9C-434.9,545.2-438.2,546.3-438.4,546.4z">
  </path>
  <linearGradient id="SVGID_4_" gradientUnits="userSpaceOnUse" x1="-451.69" y1="546.28" x2="-439.79" y2="546.28" gradientTransform="matrix(1 0 0 -1 0 1084)">
   <stop offset="0.25" style="stop-color:#FFFFFF;stop-opacity:0">
   </stop>
   <stop offset="0.36" style="stop-color:#F7F7F7;stop-opacity:0.11">
   </stop>
   <stop offset="0.58" style="stop-color:#E1E1E1;stop-opacity:0.38">
   </stop>
   <stop offset="0.88" style="stop-color:#BEBEBE;stop-opacity:0.82">
   </stop>
   <stop offset="1" style="stop-color:#AFAFAF">
   </stop>
  </linearGradient>
  <path class="st4" d="M-448.9,533.7L-448.9,533.7c-1.3-1-2.3-2.3-2.8-3.9l1.4,3.6c2.7,4.6,9.8,5.1,10.5,12.2
		C-440.6,536.5-444.6,537.9-448.9,533.7z">
  </path>
 </g>
</svg>